# xmcd
#
# Track frame offsets:
#	182
#	20152
#	41485
#	61222
#	77210
#	97247
#	119025
#	142890
#	156310
#	174155
#	193395
#	213255
#	232592
#
# Disc length: 3336 seconds
#
# Revision: 1
# Processed by: cddbd v1.5.2PL0 Copyright (c) Steve Scherf et al.
# Submitted via: EZCDAudioConverter 1.6.1.1
#
DISCID=b30d060d
DTITLE=羅文 - 羅文 25 週年精華集
DYEAR=21996
DGENRE=Oldies
TTITLE0=愛情的代價
TTITLE1=塵緣
TTITLE2=滄海一聲笑
TTITLE3=水仙
TTITLE4=明日天涯
TTITLE5=幾許\風雨
TTITLE6=人生如夢
TTITLE7=在我生命裡
TTITLE8=卡門
TTITLE9=淚\的小雨
TTITLE10=戲說人生
TTITLE11=愛你變成害你
TTITLE12=掌聲響起
EXTD=
EXTT0=
EXTT1=
EXTT2=
EXTT3=
EXTT4=
EXTT5=
EXTT6=
EXTT7=
EXTT8=
EXTT9=
EXTT10=
EXTT11=
EXTT12=
PLAYORDER=
